<?xml version="1.0" encoding="UTF-8" standalone="no"?>
<!-- Created with Inkscape (http://www.inkscape.org/) -->

<svg
   xmlns:dc="http://purl.org/dc/elements/1.1/"
   xmlns:cc="http://creativecommons.org/ns#"
   xmlns:rdf="http://www.w3.org/1999/02/22-rdf-syntax-ns#"
   xmlns:svg="http://www.w3.org/2000/svg"
   xmlns="http://www.w3.org/2000/svg"
   xmlns:sodipodi="http://sodipodi.sourceforge.net/DTD/sodipodi-0.dtd"
   xmlns:inkscape="http://www.inkscape.org/namespaces/inkscape"
   sodipodi:docname="logo.svg"
   inkscape:version="0.48.4 r9939"
   version="1.1"
   id="svg2"
   height="1052.3622047"
   width="744.09448819">
  <sodipodi:namedview
     id="base"
     pagecolor="#ffffff"
     bordercolor="#666666"
     borderopacity="1.0"
     inkscape:pageopacity="0.0"
     inkscape:pageshadow="2"
     inkscape:zoom="0.98995"
     inkscape:cx="61.904"
     inkscape:cy="674.94"
     inkscape:document-units="px"
     inkscape:current-layer="layer1"
     showgrid="false"
     inkscape:window-width="1600"
     inkscape:window-height="824"
     inkscape:window-x="0"
     inkscape:window-y="24"
     inkscape:window-maximized="1" />
  <defs
     id="defs4">
    <inkscape:path-effect
       effect="spiro"
       id="path-effect3085"
       is_visible="true" />
    <inkscape:path-effect
       effect="spiro"
       id="path-effect3081"
       is_visible="true" />
    <inkscape:path-effect
       effect="spiro"
       id="path-effect3064"
       is_visible="true" />
    <inkscape:path-effect
       effect="spiro"
       id="path-effect3052"
       is_visible="true" />
    <inkscape:path-effect
       effect="spiro"
       id="path-effect3085-9"
       is_visible="true" />
  </defs>
  <metadata
     id="metadata7">
    <rdf:RDF>
      <cc:Work
         rdf:about="">
        <dc:format>image/svg+xml</dc:format>
        <dc:type
           rdf:resource="http://purl.org/dc/dcmitype/StillImage" />
        <dc:title></dc:title>
      </cc:Work>
    </rdf:RDF>
  </metadata>
  <g
     inkscape:label="Layer 1"
     inkscape:groupmode="layer"
     id="layer1">
    <g
       id="g3901"
       transform="translate(-60.576,0)"
       inkscape:export-filename="/home/igorm/jcp.png"
       inkscape:export-xdpi="85.378"
       inkscape:export-ydpi="85.378">
      <text
         transform="matrix(2.2572,0,0,1.8086,-427.32,-366.01)"
         sodipodi:linespacing="125%"
         id="text3029"
         y="478.60001"
         x="320.98001"
         style="font-size:40px;font-style:normal;font-variant:normal;font-weight:bold;font-stretch:normal;line-height:125%;letter-spacing:0px;word-spacing:0px;fill:#666666;fill-opacity:1;stroke:none;font-family:KacstLetter;-inkscape-font-specification:KacstLetter Bold"
         xml:space="preserve"><tspan
           style="font-style:normal;font-variant:normal;font-weight:bold;font-stretch:normal;fill:#666666;font-family:Arial;-inkscape-font-specification:Arial Bold"
           y="478.60001"
           x="320.98001"
           id="tspan3031"
           sodipodi:role="line">/*$  $*/</tspan></text>
      <g
         transform="translate(26.264,7.0711)"
         id="g3890">
        <g
           id="g3118"
           style="stroke-width:4.625;stroke-miterlimit:4;stroke-dasharray:none">
          <path
             transform="matrix(0.32643,0,0,0.32643,219.36,319.07)"
             id="path3071"
             d="M 516.62,454.12 C 505.58,477.49 497.94,502.34 495.47,524.56 494.74,531.11 487.16,560.8 496.5,565.47 505.42,569.93 542.3,552.81 555.59,551.34 572.5,549.46 594.2,546.42 611.12,549.81 619.5,551.49 650.19,567.61 655.09,565.97 660.68,564.11 654.91,539.39 653.06,536.16 637.66,509.2 607.87,471.76 619.22,437.69 620.18,434.79 621.28,432.12 622.31,429.34 618.82,429.38 615.27,429.39 612.16,429.59 604.27,430.12 596.02,430.96 587.69,432.16 583.52,432.75 579.35,433.43 575.16,434.22 570.96,435.01 566.75,435.91 562.59,436.91 558.44,437.9 554.31,438.98 550.25,440.19 546.19,441.4 542.19,442.74 538.28,444.19 534.37,445.63 530.57,447.18 526.88,448.88 523.33,450.5 519.92,452.26 516.62,454.12 z"
             style="fill:#ffffff;stroke:#000000;stroke-width:14.16843;stroke-linecap:butt;stroke-linejoin:miter;stroke-miterlimit:4;stroke-opacity:1;stroke-dasharray:none"
             inkscape:connector-curvature="0" />
          <path
             transform="matrix(0.32643,0,0,0.32643,219.36,319.07)"
             id="path3050"
             d="M 516.62,454.12 C 519.92,452.26 523.33,450.5 526.88,448.88 530.57,447.18 534.37,445.63 538.28,444.19 542.19,442.74 546.19,441.4 550.25,440.19 554.31,438.98 558.44,437.9 562.59,436.91 566.75,435.91 570.96,435.01 575.16,434.22 579.35,433.43 583.52,432.75 587.69,432.16 596.02,430.96 604.27,430.12 612.16,429.59 615.27,429.39 618.82,429.38 622.31,429.34 635.51,402.25 647.07,368.26 680.79,341.65 645.37,342.72 583.99,371.3 563.16,388.69 544.7,405.1 528.63,428.73 516.62,454.12 z"
             style="fill:#000000;stroke:#000000;stroke-width:14.16843;stroke-linecap:butt;stroke-linejoin:round;stroke-miterlimit:4;stroke-opacity:1;stroke-dasharray:none"
             inkscape:connector-curvature="0"
             sodipodi:nodetypes="cccscccccccc" />
        </g>
        <path
           sodipodi:type="arc"
           style="fill:#ff0000;fill-opacity:1;stroke:none"
           id="path3054"
           sodipodi:cx="614.17"
           sodipodi:cy="454.6"
           sodipodi:rx="29.799"
           sodipodi:ry="18.94"
           d="M 643.97,454.6 C 643.97,465.06 630.63,473.54 614.17,473.54 597.71,473.54 584.37,465.06 584.37,454.6 584.37,444.14 597.71,435.66 614.17,435.66 630.63,435.66 643.97,444.14 643.97,454.6 z"
           transform="matrix(0.32643,0,0,0.4004,219.44,280.49)" />
        <path
           sodipodi:type="arc"
           style="fill:#ffffff;fill-opacity:1;stroke:none"
           id="path3073"
           sodipodi:cx="677.81"
           sodipodi:cy="424.55"
           sodipodi:rx="14.142"
           sodipodi:ry="6.566"
           d="M 691.95,424.55 C 691.95,428.18 685.62,431.12 677.81,431.12 670,431.12 663.67,428.18 663.67,424.55 663.67,420.92 670,417.98 677.81,417.98 685.62,417.98 691.95,420.92 691.95,424.55 z"
           transform="matrix(0.30444,-0.1178,0.1178,0.30444,160.43,409.32)" />
      </g>
    </g>
    <text
       xml:space="preserve"
       style="font-size:40px;font-style:normal;font-variant:normal;font-weight:500;font-stretch:normal;line-height:125%;letter-spacing:0px;word-spacing:0px;fill:#000000;fill-opacity:1;stroke:none;font-family:KacstDigital;-inkscape-font-specification:KacstDigital Medium"
       x="317.69"
       y="548.79999"
       id="text3897"
       sodipodi:linespacing="125%"
       transform="translate(-121.22,-22.728)"><tspan
         sodipodi:role="line"
         id="tspan3899"
         x="317.69"
         y="548.79999"
         style="font-size:12px;font-weight:bold;-inkscape-font-specification:KacstDigital Bold">http://java-comment-preprocessor.googlecode.com/</tspan></text>
  </g>
  <g
     transform="translate(225.16,358.22)"
     inkscape:label="DataMatrix"
     id="g38795" />
</svg>
